<svg version="1.0" xmlns="http://www.w3.org/2000/svg"
 width="498.000000pt" height="501.000000pt" viewBox="0 0 498.000000 501.000000"
 preserveAspectRatio="xMidYMid meet">

<g transform="translate(0.000000,501.000000) scale(0.100000,-0.100000)"
fill="#000000" stroke="none">
<path d="M3625 4313 c-80 -18 -116 -37 -164 -88 -63 -67 -71 -87 -71 -183 0
-93 22 -148 83 -210 49 -50 110 -72 200 -72 85 0 130 17 186 69 119 110 120
310 3 411 -65 56 -169 88 -237 73z m5 -39 c0 -13 -33 -61 -49 -70 -123 -68
-163 -64 -104 12 14 19 38 41 52 49 26 14 101 21 101 9z m166 -17 c22 -19 25
-28 19 -55 -6 -31 -8 -32 -61 -32 -39 0 -64 6 -89 23 -37 23 -41 36 -25 68 16
30 119 27 156 -4z m35 -144 l23 -36 -20 -56 -19 -56 -47 -3 c-47 -3 -48 -2
-77 45 -32 51 -32 76 -3 121 12 18 23 22 67 22 51 0 55 -2 76 -37z m-323 2
c14 -31 16 -92 3 -100 -5 -3 -12 -19 -16 -36 -6 -27 -10 -30 -38 -27 -28 3
-33 8 -44 48 -10 32 -10 53 -3 74 23 66 77 88 98 41z m422 -65 c0 -5 -6 -10
-13 -10 -7 0 -22 -7 -33 -16 -10 -8 -14 -13 -8 -10 6 3 1 -14 -10 -38 -29 -60
-42 -32 -15 33 19 45 25 51 50 51 16 0 29 -4 29 -10z m-255 -50 c30 -47 30
-49 8 -95 -16 -34 -18 -35 -74 -35 -56 0 -59 2 -83 37 -24 34 -24 38 -10 72
20 48 39 61 91 61 39 0 45 -3 68 -40z m-6 -154 c-2 -3 -24 -7 -48 -10 -25 -3
-48 -11 -53 -18 -6 -10 -8 -9 -8 3 0 25 10 29 63 29 28 0 48 -2 46 -4z"/>
<path d="M3206 4239 c-133 -44 -158 -65 -44 -35 72 19 138 46 138 57 0 11 10
14 -94 -22z"/>
<path d="M2611 4172 c-36 -16 -74 -40 -85 -55 -27 -37 -26 -109 2 -164 28 -54
28 -88 0 -107 l-22 -15 24 -52 c41 -87 102 -124 159 -95 35 18 51 44 51 80 0
42 20 74 51 80 17 3 29 12 29 21 0 9 -5 13 -10 10 -23 -14 -140 42 -140 67 0
6 16 -2 35 -17 58 -44 61 -23 6 42 -54 66 -60 83 -36 103 21 17 19 25 -7 37
-22 9 -21 11 15 22 22 7 53 10 73 7 29 -6 34 -4 34 12 0 53 -86 65 -179 24z
m3 -151 c3 -5 -2 -8 -11 -7 -27 2 -26 -23 1 -30 33 -8 34 -34 1 -34 -18 0 -26
7 -31 25 -3 14 -4 32 0 40 6 16 32 20 40 6z m16 -171 c19 -38 29 -134 11 -114
-7 7 -41 131 -41 149 0 14 12 1 30 -35z m-28 -47 c9 -32 15 -60 12 -62 -7 -7
-53 40 -59 60 -6 19 10 59 23 59 4 0 15 -26 24 -57z"/>
<path d="M1796 4149 c-17 -25 -12 -45 16 -60 37 -20 76 39 46 69 -18 18 -45
14 -62 -9z m54 -18 c0 -36 -17 -49 -37 -28 -20 19 -8 57 18 57 14 0 19 -7 19
-29z"/>
<path d="M2273 4123 c9 -2 25 -2 35 0 9 3 1 5 -18 5 -19 0 -27 -2 -17 -5z"/>
<path d="M2100 4100 c-11 -7 -5 -8 20 -4 43 8 51 14 19 14 -13 0 -31 -5 -39
-10z"/>
<path d="M2005 4070 c-13 -6 -15 -9 -5 -9 8 0 22 4 30 9 18 12 2 12 -25 0z"/>
<path d="M2713 4064 c-22 -10 -14 -22 21 -34 27 -9 39 -8 55 2 12 7 20 17 18
23 -4 11 -74 17 -94 9z"/>
<path d="M1950 4050 c-8 -5 -10 -10 -5 -10 6 0 17 5 25 10 8 5 11 10 5 10 -5
0 -17 -5 -25 -10z"/>
<path d="M1855 4010 c-8 -13 5 -13 25 0 13 8 13 10 -2 10 -9 0 -20 -4 -23 -10z"/>
<path d="M1785 3975 c-22 -13 -35 -24 -30 -24 6 0 28 11 50 24 22 14 36 25 30
25 -5 0 -28 -11 -50 -25z"/>
<path d="M2801 3991 c-12 -8 -12 -13 -3 -24 10 -12 9 -16 -3 -21 -20 -7 -19
-45 0 -53 22 -8 29 2 28 42 -1 19 3 38 8 41 10 6 3 24 -9 24 -4 0 -13 -4 -21
-9z m16 -67 c-3 -3 -12 -4 -19 -1 -8 3 -5 6 6 6 11 1 17 -2 13 -5z"/>
<path d="M3245 3991 c-16 -3 -25 -9 -20 -12 6 -4 28 -1 50 6 42 13 22 17 -30
6z"/>
<path d="M4052 3975 c0 -16 2 -22 5 -12 2 9 2 23 0 30 -3 6 -5 -1 -5 -18z"/>
<path d="M3040 3955 l24 -25 -32 6 c-18 4 -32 3 -32 -2 0 -12 110 -126 134
-139 14 -8 20 -27 25 -84 6 -60 -3 -174 -15 -189 -4 -7 -64 29 -64 38 0 5 9
15 20 23 18 13 19 15 5 21 -23 9 -52 -10 -70 -44 -9 -17 -18 -30 -21 -30 -2 0
3 14 11 31 9 17 15 33 12 35 -2 2 -23 -10 -47 -27 -40 -29 -45 -25 -12 14 28
32 2 31 -39 -2 -22 -18 -42 -31 -45 -28 -3 2 11 25 31 51 45 60 19 64 -36 6
l-39 -41 7 62 c10 95 -1 80 -88 -118 -12 -29 -24 -51 -26 -49 -3 2 5 34 16 71
12 37 21 79 21 94 -1 35 -71 -109 -97 -196 -10 -35 -20 -63 -24 -63 -3 0 -16
22 -29 50 -13 27 -25 49 -26 47 -2 -1 2 -36 7 -76 14 -98 6 -118 -26 -66 -14
22 -32 56 -41 75 -19 42 -55 93 -60 87 -2 -2 7 -37 21 -77 33 -96 58 -200 51
-207 -3 -3 -10 7 -16 23 -6 16 -20 38 -30 49 -21 23 -142 220 -153 249 -6 15
-1 14 28 -8 l35 -27 -10 26 c-5 14 -16 38 -25 55 -25 49 -21 52 55 48 39 -2
70 -2 70 -1 0 7 -74 32 -123 44 l-56 12 15 28 c7 15 14 35 14 44 0 13 -6 11
-33 -9 -17 -13 -55 -34 -82 -45 l-50 -21 37 35 c41 38 35 45 -14 19 -16 -9
-48 -22 -70 -30 -46 -16 -45 -12 16 54 16 17 26 32 20 32 -19 -1 -51 -26 -89
-69 -38 -42 -58 -43 -35 -2 9 17 8 21 -5 21 -30 0 -55 -20 -55 -45 0 -21 -11
-30 -66 -56 -36 -17 -94 -49 -130 -70 -35 -21 -67 -39 -71 -39 -18 0 -103 -83
-103 -100 0 -29 -11 -49 -24 -44 -6 2 -31 -2 -54 -10 -48 -17 -52 -13 -19 22
30 34 -1 16 -47 -26 -49 -44 -66 -73 -59 -100 7 -29 12 -28 53 9 36 33 98 64
108 55 3 -3 0 -17 -6 -31 -15 -33 -15 -35 3 -35 18 0 60 71 75 127 9 36 18 47
53 65 53 28 149 68 162 68 6 0 43 16 84 35 82 40 88 41 111 20 13 -11 24 -13
46 -6 16 5 51 12 78 15 l49 6 -7 -96 c-4 -53 -14 -130 -23 -173 -8 -42 -17
-87 -20 -101 -3 -14 -16 -48 -29 -77 -60 -129 -72 -317 -25 -380 22 -29 23
-36 14 -82 -10 -52 -7 -60 16 -38 8 6 -3 -10 -23 -36 -46 -62 -49 -88 -5 -55
104 77 117 73 26 -8 -63 -56 -97 -97 -97 -121 0 -3 18 11 40 31 22 19 68 49
102 66 68 33 70 37 -38 -52 -25 -21 -43 -38 -41 -38 2 0 30 9 62 20 75 26 86
25 53 -4 -18 -16 -45 -26 -84 -31 -68 -8 -133 -32 -135 -49 -1 -6 -2 -33 -3
-61 -1 -33 -11 -69 -29 -106 l-29 -56 22 -44 22 -44 -26 24 c-14 13 -28 32
-32 43 -3 10 -10 18 -15 18 -17 0 -9 -40 17 -83 l25 -42 -29 31 c-17 18 -34
40 -39 49 -7 12 -17 15 -31 11 -28 -9 -109 -94 -139 -147 -13 -24 -34 -54 -45
-66 -12 -13 -19 -25 -16 -29 3 -3 19 13 34 35 16 22 32 41 35 41 6 0 19 -50
19 -75 0 -17 -30 -28 -44 -15 -9 7 -11 2 -8 -20 4 -25 1 -30 -17 -30 -11 0
-21 -6 -21 -13 0 -8 -23 -33 -52 -57 l-51 -44 6 41 7 41 -28 -10 c-21 -8 -28
-18 -30 -45 -1 -19 4 -46 12 -61 12 -23 12 -31 -3 -62 -9 -19 -19 -37 -22 -40
-3 -3 -12 -29 -19 -58 -7 -29 -14 -51 -16 -49 -2 2 -1 69 3 150 5 122 9 147
22 150 9 3 0 5 -20 6 -44 1 -83 -31 -73 -61 4 -12 1 -24 -7 -29 -11 -6 -10
-12 4 -27 19 -21 23 -77 13 -164 -4 -35 -2 -48 9 -52 8 -3 15 -16 15 -29 0
-27 31 -60 37 -41 3 10 31 62 99 192 10 17 24 32 31 32 16 0 16 5 0 30 -11 18
-8 25 28 58 37 35 107 87 215 160 25 16 84 68 131 114 47 45 111 102 142 125
54 41 57 45 57 87 0 48 22 78 42 58 9 -9 9 -15 0 -24 -17 -17 -15 -25 9 -31
16 -4 19 -11 14 -26 -4 -15 -2 -21 8 -21 17 0 27 -21 27 -54 0 -12 6 -28 12
-34 10 -10 10 -15 -2 -22 -17 -10 -6 -25 18 -25 12 0 16 -8 15 -27 -1 -19 3
-28 13 -28 9 0 22 -7 30 -15 9 -8 19 -15 24 -15 13 0 27 55 40 153 7 48 16 87
21 87 5 0 6 13 3 28 -8 41 34 77 276 239 120 80 217 168 230 209 7 19 9 48 5
65 l-7 31 -22 -21 c-12 -12 -27 -21 -33 -21 -7 0 -18 -6 -25 -13 -11 -11 -19
-9 -45 9 l-33 22 37 7 c27 5 33 9 22 16 -8 5 -26 9 -41 9 -15 0 -37 4 -50 9
-13 5 -31 12 -41 15 -42 13 31 80 85 78 28 -1 30 1 15 15 -21 21 -69 21 -99
-1 -86 -63 -103 -74 -107 -70 -3 2 15 22 39 44 24 22 41 40 36 40 -4 0 -35
-11 -69 -24 -60 -24 -133 -46 -150 -46 -14 0 75 72 108 87 l30 14 -35 -7 c-19
-3 -73 -17 -119 -30 -47 -13 -86 -22 -89 -20 -2 2 18 17 45 32 132 75 131 78
-12 34 -54 -16 -102 -30 -108 -30 -14 0 123 86 149 93 10 3 -6 3 -36 0 -30 -3
-86 -16 -125 -29 -112 -38 -113 -29 -4 32 l64 35 -52 -6 c-29 -3 -70 -12 -93
-20 -22 -8 -40 -11 -40 -7 0 22 36 52 80 67 28 9 50 18 50 19 0 1 -31 0 -70
-2 -38 -2 -70 -2 -70 2 0 22 35 86 49 91 13 4 16 13 13 35 -3 22 0 30 10 30
27 0 159 -101 190 -145 23 -33 43 -48 76 -60 25 -8 51 -15 59 -15 7 0 22 24
35 53 41 98 147 298 184 349 61 82 85 89 295 81 96 -3 188 -3 204 1 l28 7 -5
87 c-4 70 -13 106 -41 177 -20 50 -39 110 -43 135 -11 74 -37 109 -82 110 -13
0 -20 4 -17 10 4 6 -14 10 -46 10 l-52 0 23 -25z m-654 -573 c45 -62 113 -209
114 -241 0 -8 -14 8 -32 35 -17 27 -42 65 -55 85 -28 42 -97 203 -84 194 6 -3
31 -36 57 -73z m-21 -94 c71 -94 86 -119 69 -110 -11 6 -36 27 -58 49 -37 37
-38 37 -23 8 8 -16 36 -61 61 -98 53 -79 59 -102 15 -58 -16 17 -51 47 -77 68
-55 43 -82 71 -82 86 0 5 9 2 20 -8 24 -22 25 -16 5 32 -8 19 -15 60 -15 91
l0 55 32 -44 c18 -24 42 -56 53 -71z m447 -663 c35 -24 65 -62 56 -71 -5 -4
-102 75 -106 87 -6 16 12 10 50 -16z m-26 -51 c48 -50 42 -60 -12 -19 -61 47
-71 44 -35 -9 l30 -44 -41 -28 c-87 -61 -128 -91 -182 -133 -46 -36 -59 -41
-71 -31 -23 19 -18 34 28 86 23 27 67 79 96 117 83 106 131 122 187 61z m-177
7 c20 -13 11 -27 -122 -186 -68 -81 -93 -104 -121 -111 -15 -3 -29 -4 -32 -2
-2 3 18 38 45 79 27 41 64 109 82 151 l34 78 50 0 c28 0 56 -4 64 -9z m-441
-263 c7 -7 12 -19 12 -27 0 -25 -81 -122 -111 -133 -22 -8 -29 -16 -29 -36
l-1 -27 -14 25 c-22 38 -18 79 15 148 l29 62 44 0 c23 0 48 -5 55 -12z m280
-47 c-22 -36 -68 -50 -68 -21 0 5 14 26 32 46 30 34 32 35 40 15 4 -13 3 -29
-4 -40z m-98 -35 c0 -25 7 -40 23 -51 15 -12 18 -19 9 -22 -10 -4 -9 -10 5
-25 18 -20 17 -20 -4 -14 -27 9 -29 -1 -6 -26 15 -17 15 -18 -2 -18 -16 0 -16
-3 6 -26 l24 -27 -23 6 c-25 6 -26 0 -6 -47 5 -13 4 -17 -3 -13 -15 9 -58 120
-78 202 -16 66 -16 70 1 82 34 25 54 16 54 -21z m-440 -197 c12 -23 20 -43 17
-45 -2 -2 -19 7 -37 21 -18 14 -35 23 -37 21 -2 -2 6 -23 18 -46 l22 -42 -30
-28 -30 -29 -32 33 c-17 17 -31 39 -31 48 0 23 79 108 101 108 12 0 26 -15 39
-41z"/>
<path d="M2145 2300 c-3 -6 1 -7 9 -4 18 7 21 14 7 14 -6 0 -13 -4 -16 -10z"/>
<path d="M1694 3924 c-18 -14 -18 -15 4 -4 12 6 22 13 22 15 0 8 -5 6 -26 -11z"/>
<path d="M4042 3890 c0 -14 2 -19 5 -12 2 6 2 18 0 25 -3 6 -5 1 -5 -13z"/>
<path d="M995 3889 c-9 -13 7 -31 188 -212 102 -102 154 -147 167 -145 11 2
35 -13 59 -37 23 -21 41 -35 41 -29 0 5 -10 19 -22 32 -174 171 -414 402 -420
402 -4 0 -10 -5 -13 -11z"/>
<path d="M1881 3874 c0 -11 3 -14 6 -6 3 7 2 16 -1 19 -3 4 -6 -2 -5 -13z"/>
<path d="M2388 3873 c17 -2 47 -2 65 0 17 2 3 4 -33 4 -36 0 -50 -2 -32 -4z"/>
<path d="M2120 3841 c-102 -27 -230 -80 -287 -117 -28 -19 -54 -34 -58 -34 -4
0 -26 -15 -49 -32 -22 -18 -47 -37 -55 -43 -34 -25 -144 -132 -153 -148 -33
-62 40 -12 245 169 35 31 239 130 292 142 22 5 72 25 110 45 79 41 64 47 -45
18z"/>
<path d="M2860 3830 c0 -5 -17 -17 -37 -25 -42 -18 -38 -25 32 -50 28 -10 86
-35 130 -56 45 -21 95 -42 113 -45 27 -6 32 -4 32 13 0 35 -28 59 -122 106
-114 57 -148 70 -148 57z"/>
<path d="M1247 3813 c-12 -12 -7 -22 29 -63 37 -41 64 -52 64 -25 0 15 -67 95
-79 95 -4 0 -11 -3 -14 -7z"/>
<path d="M4016 3793 c-6 -14 -5 -15 5 -6 7 7 10 15 7 18 -3 3 -9 -2 -12 -12z"/>
<path d="M1700 3793 c0 -6 8 -17 18 -24 16 -13 16 -13 2 6 -8 11 -16 22 -17
24 -2 2 -3 0 -3 -6z"/>
<path d="M3847 3704 c-51 -49 -50 -77 2 -33 42 36 55 56 43 63 -5 3 -25 -11
-45 -30z"/>
<path d="M1540 3660 c17 -22 34 -40 37 -40 2 0 -10 18 -27 40 -17 22 -34 40
-37 40 -2 0 10 -18 27 -40z"/>
<path d="M3517 3612 c-20 -21 -37 -42 -37 -47 0 -6 11 2 25 17 14 15 32 31 41
36 9 5 15 15 13 21 -3 7 -21 -5 -42 -27z"/>
<path d="M1460 3633 c0 -9 65 -63 76 -63 10 0 -37 50 -58 61 -10 5 -18 6 -18
2z"/>
<path d="M3338 3529 c2 -47 -1 -85 -7 -93 -8 -9 -4 -19 15 -37 26 -25 101
-125 141 -189 51 -81 83 -152 123 -270 l43 -125 1 -190 c1 -170 -2 -199 -22
-270 -51 -177 -114 -303 -226 -450 -125 -165 -311 -294 -524 -365 -152 -51
-264 -64 -462 -56 -135 6 -154 10 -265 47 -113 39 -150 55 -252 113 -65 36
-75 46 -62 62 18 22 -17 29 -44 10 -12 -9 -43 -31 -69 -48 -27 -17 -48 -34
-48 -38 0 -7 159 -192 199 -231 9 -9 41 -45 71 -79 87 -99 182 -203 346 -375
83 -88 163 -173 176 -190 l26 -29 103 109 c57 61 118 124 135 140 17 17 77 82
134 145 57 63 107 117 110 120 4 3 44 48 90 100 46 52 153 167 238 255 85 88
165 176 178 197 13 20 28 39 33 42 24 15 123 182 164 277 79 183 106 315 107
514 0 200 -38 379 -115 542 -50 105 -122 220 -173 278 -105 120 -148 165 -157
165 -6 0 -9 -31 -7 -81z m102 -88 c0 -18 -18 -21 -30 -6 -10 13 -9 15 9 15 11
0 21 -4 21 -9z m124 -169 c2 -4 0 -14 -5 -22 -8 -13 -10 -13 -18 0 -10 15 -6
30 9 30 5 0 11 -4 14 -8z m91 -211 c-10 -16 -25 -3 -25 22 0 20 1 20 16 5 9
-9 13 -21 9 -27z m63 -148 c5 -17 -26 -29 -40 -15 -6 6 -7 15 -3 22 9 14 37 9
43 -7z m25 -277 c8 -19 -17 -53 -27 -37 -9 13 2 51 14 51 4 0 10 -6 13 -14z
m-23 -271 c0 -8 -7 -15 -15 -15 -8 0 -15 7 -15 15 0 8 7 15 15 15 8 0 15 -7
15 -15z m-60 -189 c0 -15 -18 -31 -26 -23 -7 7 7 37 17 37 5 0 9 -6 9 -14z
m-102 -229 c2 -12 -3 -17 -17 -17 -12 0 -21 6 -21 13 0 31 32 34 38 4z m-1683
-397 c0 -22 -29 -18 -33 3 -3 14 1 18 15 15 10 -2 18 -10 18 -18z m1295 6 c0
-21 -21 -31 -30 -15 -5 7 -6 17 -4 21 9 14 34 9 34 -6z m-1120 -120 c0 -20
-19 -31 -32 -18 -6 6 -7 15 -4 21 10 16 36 13 36 -3z m943 -1 c1 -5 -6 -11
-15 -13 -11 -2 -18 3 -18 13 0 17 30 18 33 0z m-465 -52 c3 -19 -1 -23 -21
-23 -25 0 -42 23 -31 41 11 19 49 5 52 -18z m-270 -75 c-4 -27 -28 -36 -28
-10 0 20 8 32 22 32 5 0 8 -10 6 -22z m502 18 c0 -2 3 -11 6 -20 4 -12 0 -16
-15 -16 -14 0 -21 6 -21 20 0 11 7 20 15 20 8 0 15 -2 15 -4z m-320 -36 c0
-10 -4 -21 -9 -24 -12 -8 -22 20 -15 39 8 19 24 9 24 -15z m70 -5 c0 -19 -4
-35 -10 -35 -5 0 -10 16 -10 35 0 19 5 35 10 35 6 0 10 -16 10 -35z m80 -1 c0
-25 -15 -33 -23 -11 -6 18 4 48 14 41 5 -3 9 -16 9 -30z m78 3 c2 -19 -1 -27
-12 -27 -11 0 -16 10 -16 31 0 38 24 35 28 -4z m-341 1 c-3 -8 -6 -5 -6 6 -1
11 2 17 5 13 3 -3 4 -12 1 -19z m180 -80 c-3 -8 -6 -5 -6 6 -1 11 2 17 5 13 3
-3 4 -12 1 -19z m17 -101 c21 -16 18 -45 -6 -61 -14 -8 -22 -6 -40 11 -21 22
-21 23 -3 43 21 24 25 24 49 7z"/>
<path d="M3760 3603 c-18 -7 -117 -103 -106 -103 11 0 69 42 83 60 6 8 9 18 7
22 -3 5 2 8 10 8 8 0 18 5 21 10 7 11 7 11 -15 3z"/>
<path d="M3765 3484 c-70 -69 -124 -128 -121 -132 4 -3 21 8 39 24 17 17 50
42 72 56 58 38 155 132 155 151 0 37 -25 20 -145 -99z"/>
<path d="M1769 3583 c-13 -16 -12 -17 4 -4 16 13 21 21 13 21 -2 0 -10 -8 -17
-17z"/>
<path d="M1460 3556 c0 -2 8 -10 18 -17 15 -13 16 -12 3 4 -13 16 -21 21 -21
13z"/>
<path d="M1729 3543 c-13 -16 -12 -17 4 -4 16 13 21 21 13 21 -2 0 -10 -8 -17
-17z"/>
<path d="M3575 3509 c-11 -17 1 -21 15 -4 8 9 8 15 2 15 -6 0 -14 -5 -17 -11z"/>
<path d="M1372 3424 c10 -10 20 -15 24 -12 3 4 -5 12 -18 18 -22 12 -22 12 -6
-6z"/>
<path d="M3820 3418 c0 -7 16 -37 35 -67 95 -150 190 -452 202 -643 l6 -106
-74 -6 c-140 -12 -144 -13 -36 -14 l107 -2 0 -72 c0 -84 -30 -270 -60 -373
-33 -115 -33 -115 -21 -115 6 0 11 8 11 18 0 11 6 32 14 48 36 72 68 213 79
352 l11 142 66 0 c36 0 71 4 79 9 24 15 -6 23 -77 19 l-67 -3 -7 90 c-12 152
-27 222 -74 364 -39 118 -65 176 -151 339 -16 32 -43 44 -43 20z"/>
<path d="M1133 3352 c-48 -79 -128 -254 -142 -309 -5 -21 -19 -71 -30 -112
-12 -41 -26 -113 -32 -160 -6 -47 -14 -104 -17 -126 l-7 -40 -75 -5 -75 -4 80
-6 80 -5 6 -110 c7 -112 27 -230 55 -320 21 -67 76 -196 82 -190 3 2 -4 24
-16 47 -42 91 -91 319 -99 466 l-6 102 104 2 c59 1 78 3 44 5 -33 1 -79 5
-102 9 l-43 5 0 49 c0 45 28 228 48 315 15 63 101 276 132 325 34 55 64 119
58 125 -2 2 -22 -26 -45 -63z"/>
<path d="M1741 3319 c-99 -99 -132 -142 -181 -234 -60 -115 -120 -321 -120
-416 l0 -39 60 0 c50 0 60 3 60 18 1 16 2 16 14 -1 10 -13 25 -17 52 -15 l38
3 13 97 c15 109 65 246 126 341 20 31 37 60 37 64 0 3 -8 16 -17 27 -17 20
-17 20 0 7 10 -8 17 -9 17 -3 0 6 -5 14 -10 17 -6 4 -8 11 -5 16 4 5 1 17 -5
26 -10 15 -11 15 -6 1 2 -9 -1 -24 -9 -34 -7 -10 -11 -24 -8 -31 3 -7 0 -13
-6 -13 -6 0 -11 9 -11 20 0 11 -4 20 -10 20 -5 0 -7 -6 -4 -14 5 -14 -32 -30
-40 -17 -8 13 -10 107 -2 119 4 7 12 10 17 6 5 -3 8 -1 7 4 -2 6 14 31 35 56
21 25 36 46 34 46 -3 0 -37 -32 -76 -71z m-121 -292 c3 0 13 3 23 8 21 9 47
-10 47 -36 0 -23 -41 -26 -59 -5 -7 8 -23 17 -36 20 -14 4 -25 11 -25 17 0 6
9 8 23 4 12 -4 24 -7 27 -8z"/>
<path d="M3694 3334 c-18 -14 -18 -15 4 -4 12 6 22 13 22 15 0 8 -5 6 -26 -11z"/>
<path d="M977 3304 c-4 -4 -7 -16 -7 -26 0 -14 6 -19 23 -16 14 2 22 10 22 23
0 20 -25 32 -38 19z"/>
<path d="M1287 3289 c7 -7 15 -10 18 -7 3 3 -2 9 -12 12 -14 6 -15 5 -6 -5z"/>
<path d="M1254 3245 c11 -8 25 -15 30 -15 6 0 2 7 -8 15 -11 8 -25 15 -30 15
-6 0 -2 -7 8 -15z"/>
<path d="M1500 3240 c-10 -19 -59 -50 -79 -50 -5 0 -18 13 -27 30 -18 29 -18
29 -32 9 -30 -44 -96 -230 -117 -332 -61 -300 -39 -526 79 -794 43 -99 109
-209 164 -273 l30 -35 36 19 c32 17 70 59 71 79 0 4 7 12 15 17 8 5 10 10 4
10 -5 0 -14 -4 -20 -10 -13 -13 -75 65 -142 180 -62 108 -115 277 -133 423
-22 177 26 407 127 613 30 61 54 116 54 122 0 19 -18 14 -30 -8z m-116 -173
c-3 -9 -10 -17 -15 -17 -11 0 -12 34 -2 44 11 11 24 -9 17 -27z m-54 -157 c0
-21 -15 -27 -25 -10 -7 12 2 30 16 30 5 0 9 -9 9 -20z m-35 -295 c0 -11 -8
-21 -17 -23 -14 -3 -18 3 -18 23 0 20 4 26 18 23 9 -2 17 -12 17 -23z m25
-255 c0 -21 -15 -27 -25 -10 -7 12 2 30 16 30 5 0 9 -9 9 -20z m50 -190 c0 -5
-4 -10 -10 -10 -5 0 -10 5 -10 10 0 6 5 10 10 10 6 0 10 -4 10 -10z m116 -229
c-10 -16 -36 -13 -36 3 0 17 21 27 34 16 4 -5 5 -13 2 -19z"/>
<path d="M1847 3199 c7 -7 15 -10 18 -7 3 3 -2 9 -12 12 -14 6 -15 5 -6 -5z"/>
<path d="M3782 3148 c-16 -16 -15 -48 1 -48 24 0 51 26 44 44 -7 19 -28 21
-45 4z"/>
<path d="M4151 3111 c-60 -25 -91 -52 -59 -50 26 1 162 56 166 68 6 19 -40 12
-107 -18z"/>
<path d="M1822 3037 c-23 -34 -42 -65 -42 -68 0 -4 30 -21 68 -39 37 -18 77
-42 89 -53 13 -11 24 -19 25 -16 19 31 44 88 37 84 -5 -3 -17 -1 -28 5 -13 7
-22 7 -26 0 -10 -16 -25 -12 -25 7 0 13 -3 14 -12 5 -19 -19 -38 -14 -38 9 0
12 -8 23 -19 26 -20 5 -21 40 -3 52 9 6 27 51 20 51 -2 0 -22 -28 -46 -63z"/>
<path d="M1851 3024 c0 -11 3 -14 6 -6 3 7 2 16 -1 19 -3 4 -6 -2 -5 -13z"/>
<path d="M1870 3020 c0 -5 5 -10 11 -10 5 0 7 5 4 10 -3 6 -8 10 -11 10 -2 0
-4 -4 -4 -10z"/>
<path d="M3476 2922 c-4 -40 -13 -78 -22 -86 -8 -8 -14 -24 -14 -35 0 -20 -9
-25 -36 -22 -7 1 -14 -6 -18 -14 -4 -11 -2 -14 6 -9 7 4 8 3 4 -4 -14 -23 -34
-12 -55 31 -12 23 -19 33 -16 22 4 -11 9 -54 12 -96 l6 -75 41 2 c29 1 42 7
44 18 5 22 19 20 25 -5 5 -17 12 -20 54 -17 l48 3 3 68 c3 71 -24 189 -58 256
l-17 34 -7 -71z"/>
<path d="M2011 2877 c-40 -84 -71 -181 -71 -225 0 -22 2 -23 75 -21 l74 2 7
44 c5 36 2 54 -17 91 -18 36 -23 64 -24 119 0 40 -1 73 -2 73 -1 0 -20 -38
-42 -83z"/>
<path d="M1754 2903 c-25 -59 -54 -183 -54 -230 l0 -43 38 0 c42 0 56 7 65 33
8 22 27 13 27 -14 0 -15 7 -19 39 -19 l39 0 7 62 c4 35 14 80 21 102 17 48 4
70 -35 62 -14 -3 -21 -3 -14 0 20 9 -81 84 -113 84 -3 0 -12 -17 -20 -37z"/>
<path d="M2891 2913 c-7 -8 -11 -16 -8 -19 2 -2 10 2 17 11 17 20 9 27 -9 8z"/>
<path d="M2796 2911 c-3 -5 0 -14 8 -20 10 -9 15 -8 19 3 4 11 1 13 -10 9 -11
-4 -14 -2 -9 5 4 7 5 12 2 12 -3 0 -7 -4 -10 -9z"/>
<path d="M2924 2906 c-5 -13 -49 -31 -66 -28 -5 1 -8 -3 -8 -8 0 -11 38 -29
55 -25 6 1 7 0 3 -2 -13 -7 -9 -20 7 -27 11 -4 14 1 11 17 -2 16 -11 23 -32
26 -28 4 -28 4 -5 10 21 6 63 51 47 51 -4 0 -9 -6 -12 -14z"/>
<path d="M2930 2869 c0 -5 5 -7 10 -4 6 3 10 8 10 11 0 2 -4 4 -10 4 -5 0 -10
-5 -10 -11z"/>
<path d="M1108 2853 c6 -2 18 -2 25 0 6 3 1 5 -13 5 -14 0 -19 -2 -12 -5z"/>
<path d="M3888 2853 c6 -2 18 -2 25 0 6 3 1 5 -13 5 -14 0 -19 -2 -12 -5z"/>
<path d="M2946 2822 c-2 -4 -1 -14 4 -21 9 -15 30 -6 30 12 0 7 -4 6 -10 -3
-9 -13 -14 -7 -11 13 1 9 -7 9 -13 -1z"/>
<path d="M1078 2803 c6 -2 18 -2 25 0 6 3 1 5 -13 5 -14 0 -19 -2 -12 -5z"/>
<path d="M3908 2803 c7 -3 16 -2 19 1 4 3 -2 6 -13 5 -11 0 -14 -3 -6 -6z"/>
<path d="M3023 2781 c4 -18 3 -21 -6 -12 -6 6 -17 11 -24 11 -8 0 -2 -16 15
-43 36 -58 52 -57 39 2 -5 25 -14 51 -19 56 -7 7 -9 2 -5 -14z"/>
<path d="M3868 2793 c7 -3 16 -2 19 1 4 3 -2 6 -13 5 -11 0 -14 -3 -6 -6z"/>
<path d="M3868 2743 c7 -3 16 -2 19 1 4 3 -2 6 -13 5 -11 0 -14 -3 -6 -6z"/>
<path d="M1063 2693 c15 -2 37 -2 50 0 12 2 0 4 -28 4 -27 0 -38 -2 -22 -4z"/>
<path d="M3913 2693 c9 -2 25 -2 35 0 9 3 1 5 -18 5 -19 0 -27 -2 -17 -5z"/>
<path d="M3208 2659 c4 -27 7 -29 48 -29 47 0 55 9 27 31 -11 10 -14 10 -9 2
4 -7 2 -13 -3 -13 -6 0 -11 4 -11 9 0 5 -13 13 -28 19 -27 9 -28 9 -24 -19z"/>
<path d="M3107 2673 c-4 -3 -7 -15 -7 -25 0 -13 8 -18 30 -18 17 0 30 4 30 9
0 13 -30 22 -43 14 -7 -4 -6 1 2 10 13 16 2 25 -12 10z"/>
<path d="M1063 2643 c15 -2 37 -2 50 0 12 2 0 4 -28 4 -27 0 -38 -2 -22 -4z"/>
<path d="M3860 2640 c0 -12 27 -12 90 -1 44 8 44 9 -22 10 -40 0 -68 -3 -68
-9z"/>
<path d="M1440 2571 c0 -63 27 -200 58 -292 37 -109 156 -309 185 -309 3 0 22
23 42 51 20 28 52 64 71 81 35 31 35 31 16 52 -57 61 -127 253 -138 375 l-7
81 -49 0 c-45 0 -49 -2 -43 -20 3 -11 2 -20 -4 -20 -5 0 -13 9 -16 20 -5 17
-15 20 -61 20 l-54 0 0 -39z m250 -350 c0 -26 -15 -34 -47 -26 -24 6 -25 7 -8
25 24 26 55 26 55 1z"/>
<path d="M1703 2526 c6 -92 61 -256 110 -334 l27 -42 39 20 c43 21 72 53 91
99 11 27 9 38 -14 97 -15 36 -31 103 -37 147 -6 45 -11 82 -12 83 -1 1 -19 5
-39 9 -34 7 -38 5 -38 -14 0 -12 -6 -21 -15 -21 -8 0 -15 9 -15 20 0 17 -7 20
-51 20 l-52 0 6 -84z m207 -204 c0 -11 -80 -56 -86 -49 -3 3 14 17 38 31 49
29 48 29 48 18z"/>
<path d="M1940 2563 c0 -38 26 -173 35 -182 5 -4 83 164 91 195 5 21 2 22 -60
26 l-66 3 0 -42z"/>
<path d="M3340 2561 c0 -72 -40 -219 -83 -305 -113 -226 -302 -381 -538 -441
-52 -14 -118 -25 -146 -25 l-53 0 0 -55 c0 -48 2 -55 20 -55 11 0 20 -4 20
-10 0 -5 -9 -10 -20 -10 -17 0 -20 -7 -20 -46 l0 -46 78 7 c341 31 613 201
819 512 77 116 143 325 143 450 l0 73 -54 0 c-44 0 -54 -3 -52 -16 0 -9 -5
-19 -11 -21 -8 -3 -13 3 -13 15 0 16 -7 19 -45 18 l-45 -1 0 -44z m34 -327
c27 -26 20 -47 -11 -39 -34 8 -58 29 -49 44 10 16 42 13 60 -5z m-240 -332 c2
-4 0 -14 -5 -22 -8 -13 -10 -13 -19 0 -5 8 -10 18 -10 23 0 10 28 9 34 -1z
m-188 -139 c-4 -4 -11 -1 -16 7 -16 25 -11 35 7 17 9 -9 13 -20 9 -24z m-91
-23 c3 -5 3 -15 -1 -21 -6 -11 -23 6 -24 24 0 10 18 9 25 -3z"/>
<path d="M3016 2560 c-10 -23 -42 -61 -73 -88 -68 -57 -77 -66 -128 -129 -55
-68 -140 -121 -229 -144 -26 -6 -50 -19 -55 -28 -4 -9 -8 -44 -10 -78 l-2 -63
33 6 c73 13 189 57 241 92 l55 36 -44 50 c-61 70 -55 81 7 14 l51 -55 48 51
c83 88 150 241 150 342 0 47 -22 44 -44 -6z"/>
<path d="M3100 2563 c0 -36 -5 -57 -42 -161 -37 -108 -133 -226 -243 -298 -60
-40 -211 -94 -261 -94 -34 0 -34 -1 -34 -45 0 -38 3 -45 20 -45 11 0 20 -4 20
-10 0 -5 -9 -10 -20 -10 -17 0 -20 -7 -20 -45 0 -42 2 -45 28 -45 37 0 181 26
214 39 142 54 265 135 234 153 -9 5 -16 14 -16 20 0 6 8 4 18 -5 27 -25 34
-22 82 31 66 72 122 158 162 252 42 97 56 148 61 238 l3 62 -42 0 c-37 0 -43
-3 -46 -22 -2 -15 -9 -22 -21 -21 -10 0 -16 -4 -14 -10 3 -8 -8 -12 -27 -13
-17 -1 -23 1 -13 3 9 2 17 12 17 21 0 10 -3 13 -8 6 -10 -14 -42 -26 -42 -14
0 5 8 11 18 13 15 4 15 5 -2 6 -12 1 -16 6 -12 16 3 8 1 15 -4 15 -6 0 -10
-17 -10 -37z m157 -5 c-3 -8 -6 -5 -6 6 -1 11 2 17 5 13 3 -3 4 -12 1 -19z
m30 -13 c0 -8 -4 -12 -9 -9 -4 3 -8 9 -8 15 0 5 4 9 8 9 5 0 9 -7 9 -15z
m-153 -252 c32 -21 51 -39 43 -41 -8 -2 -36 11 -63 29 -64 42 -71 49 -52 49 8
0 41 -17 72 -37z m-164 -213 c0 -10 -32 -30 -49 -30 -15 0 -14 27 2 33 21 9
47 7 47 -3z"/>
<path d="M1038 2523 c12 -2 32 -2 45 0 12 2 2 4 -23 4 -25 0 -35 -2 -22 -4z"/>
<path d="M3877 2523 c18 -2 50 -2 70 0 21 2 7 4 -32 4 -38 0 -55 -2 -38 -4z"/>
<path d="M1078 2473 c12 -2 32 -2 45 0 12 2 2 4 -23 4 -25 0 -35 -2 -22 -4z"/>
<path d="M3878 2473 c12 -2 32 -2 45 0 12 2 2 4 -23 4 -25 0 -35 -2 -22 -4z"/>
<path d="M3893 2413 c9 -2 23 -2 30 0 6 3 -1 5 -18 5 -16 0 -22 -2 -12 -5z"/>
<path d="M3848 2363 c7 -3 16 -2 19 1 4 3 -2 6 -13 5 -11 0 -14 -3 -6 -6z"/>
<path d="M1093 2353 c9 -2 25 -2 35 0 9 3 1 5 -18 5 -19 0 -27 -2 -17 -5z"/>
<path d="M3888 2353 c6 -2 18 -2 25 0 6 3 1 5 -13 5 -14 0 -19 -2 -12 -5z"/>
<path d="M2734 2321 c-18 -11 -35 -24 -39 -30 -3 -6 -29 -23 -56 -36 -55 -28
-66 -42 -16 -22 41 18 163 107 145 107 -2 0 -17 -9 -34 -19z"/>
<path d="M1108 2293 c7 -3 16 -2 19 1 4 3 -2 6 -13 5 -11 0 -14 -3 -6 -6z"/>
<path d="M1135 2240 c-13 -6 -15 -9 -5 -9 8 0 22 4 30 9 18 12 2 12 -25 0z"/>
<path d="M3815 2233 c15 -16 63 -24 70 -13 3 5 -2 10 -12 10 -10 0 -29 3 -43
6 -17 5 -22 3 -15 -3z"/>
<path d="M1183 2123 c-13 -2 -23 -8 -23 -13 0 -5 15 -4 33 2 52 18 47 22 -10
11z"/>
<path d="M3805 2111 c17 -10 34 -15 39 -10 13 11 8 15 -34 23 l-35 6 30 -19z"/>
<path d="M1198 2063 c-10 -2 -18 -8 -18 -13 0 -5 14 -4 30 1 45 16 36 25 -12
12z"/>
<path d="M2180 2029 c-25 -21 -60 -52 -78 -69 l-32 -30 47 -24 c69 -34 190
-76 221 -76 l27 0 -38 36 c-46 44 -77 102 -77 147 0 57 -19 61 -70 16z"/>
<path d="M3780 2052 c19 -10 37 -16 40 -14 9 7 -34 32 -54 32 -16 0 -12 -5 14
-18z"/>
<path d="M1230 1999 l-25 -20 35 17 c43 20 47 24 29 24 -8 0 -25 -10 -39 -21z"/>
<path d="M2476 1972 c-4 -18 -5 -36 -2 -39 11 -12 17 5 14 39 l-3 33 -9 -33z"/>
<path d="M3760 1990 c8 -5 22 -9 30 -9 10 0 8 3 -5 9 -27 12 -43 12 -25 0z"/>
<path d="M1274 1950 c-21 -8 -42 -30 -29 -30 10 0 65 30 65 35 0 7 -11 5 -36
-5z"/>
<path d="M3730 1941 c27 -22 40 -26 40 -12 0 5 -8 11 -17 15 -10 3 -25 9 -33
12 -8 3 -4 -4 10 -15z"/>
<path d="M1081 1903 c29 -68 82 -163 91 -163 14 0 8 23 -18 69 -35 60 -87 141
-90 141 -2 0 6 -21 17 -47z"/>
<path d="M2000 1867 c-25 -23 -63 -56 -84 -72 l-38 -30 75 -43 c146 -83 301
-133 460 -147 l77 -7 0 46 c0 39 -3 46 -20 46 -11 0 -20 6 -20 14 0 8 8 13 18
12 13 -1 18 8 20 46 l3 47 -38 6 c-114 18 -269 61 -328 91 -36 19 -69 34 -73
34 -4 0 -27 -19 -52 -43z m87 -92 c-4 -8 -11 -15 -17 -15 -7 0 -7 6 0 21 13
23 26 19 17 -6z m93 -35 c0 -5 -4 -10 -10 -10 -5 0 -10 5 -10 10 0 6 5 10 10
10 6 0 10 -4 10 -10z"/>
<path d="M3694 1881 c16 -17 33 -28 38 -25 16 10 8 20 -29 38 l-38 18 29 -31z"/>
<path d="M1298 1882 c-30 -18 -39 -39 -10 -23 28 16 58 40 47 40 -5 -1 -22 -8
-37 -17z"/>
<path d="M2450 1865 c-7 -21 -18 -35 -28 -35 -15 0 -15 -2 -2 -10 8 -5 27 -10
43 -10 25 0 27 3 27 45 0 56 -23 62 -40 10z"/>
<path d="M3909 1898 c-12 -39 10 -69 35 -49 19 16 8 51 -15 51 -11 0 -19 -1
-20 -2z"/>
<path d="M1355 1844 c-11 -8 -27 -19 -35 -24 -8 -5 -12 -12 -8 -15 4 -4 13 -2
20 4 7 6 24 20 38 31 14 10 21 19 15 19 -5 0 -19 -7 -30 -15z"/>
<path d="M3670 1805 c7 -8 17 -12 22 -9 6 4 5 10 -3 15 -22 14 -33 10 -19 -6z"/>
<path d="M1381 1781 c-44 -41 -38 -48 9 -10 22 18 40 34 40 36 0 11 -22 -1
-49 -26z"/>
<path d="M3606 1755 c16 -14 34 -25 39 -25 12 0 -46 49 -59 50 -5 0 4 -11 20
-25z"/>
<path d="M3785 1760 c-3 -5 -1 -10 4 -10 6 0 11 5 11 10 0 6 -2 10 -4 10 -3 0
-8 -4 -11 -10z"/>
<path d="M1109 1589 c-74 -78 -158 -167 -186 -197 -57 -59 -63 -72 -34 -72 24
0 383 368 379 388 -2 9 -8 17 -14 19 -6 2 -71 -60 -145 -138z"/>
<path d="M3540 1723 c0 -14 57 -66 62 -56 3 4 -10 21 -28 36 -19 16 -34 25
-34 20z"/>
<path d="M4181 1676 c-8 -10 -11 -26 -7 -41 6 -22 11 -26 39 -23 29 3 32 6 32
38 0 30 -4 35 -26 38 -14 2 -31 -4 -38 -12z"/>
<path d="M3523 1638 c18 -18 34 -29 36 -24 4 9 -47 56 -61 56 -3 0 8 -15 25
-32z"/>
<path d="M3885 1650 c-10 -11 -14 -20 -10 -20 5 0 4 -5 -3 -12 -18 -18 5 -38
43 -38 36 0 65 26 65 58 0 12 -3 21 -7 21 -5 -1 -10 0 -13 1 -29 11 -59 8 -75
-10z"/>
<path d="M3440 1632 c0 -4 16 -23 35 -42 43 -42 47 -27 4 18 -31 33 -39 38
-39 24z"/>
<path d="M3390 1590 c0 -10 109 -122 213 -219 31 -30 57 -49 57 -43 0 10 -255
272 -265 272 -3 0 -5 -4 -5 -10z"/>
<path d="M1196 1470 c-80 -81 -107 -114 -102 -127 6 -13 30 7 121 98 108 107
132 139 103 139 -7 -1 -62 -50 -122 -110z"/>
<path d="M3684 1559 c-3 -6 0 -17 8 -25 13 -13 16 -13 27 0 7 8 10 20 6 26 -8
13 -32 13 -41 -1z"/>
<path d="M3364 1535 c22 -45 42 -69 49 -59 3 6 -10 28 -29 49 -32 36 -33 37
-20 10z"/>
<path d="M1620 1505 c-13 -14 -19 -25 -13 -25 6 0 18 11 27 25 9 14 15 25 13
25 -2 0 -14 -11 -27 -25z"/>
<path d="M1666 1476 c-28 -37 -31 -46 -17 -46 10 0 54 70 48 77 -2 2 -16 -12
-31 -31z"/>
<path d="M3319 1495 c17 -33 51 -71 51 -58 0 7 -14 27 -31 45 -16 18 -26 24
-20 13z"/>
<path d="M3270 1475 c0 -13 35 -75 42 -75 5 0 -1 18 -12 40 -18 35 -30 49 -30
35z"/>
<path d="M1731 1439 c-23 -37 -26 -49 -13 -49 10 0 45 71 38 77 -3 3 -14 -10
-25 -28z"/>
<path d="M3220 1431 c0 -7 8 -26 17 -44 13 -25 18 -28 21 -15 2 10 -6 30 -17
44 -12 15 -21 21 -21 15z"/>
<path d="M1785 1391 c-18 -35 -18 -41 -5 -41 14 0 42 58 30 65 -5 3 -16 -8
-25 -24z"/>
<path d="M3170 1388 c0 -14 39 -68 40 -55 0 11 -29 67 -35 67 -3 0 -5 -6 -5
-12z"/>
<path d="M4295 1361 c-51 -24 -93 -69 -110 -117 -11 -33 -11 -44 1 -74 35 -85
78 -114 167 -114 96 1 152 58 152 153 -1 67 -18 99 -73 136 -52 35 -89 39
-137 16z m147 -60 c49 -55 49 -127 0 -182 -100 -112 -279 18 -213 155 39 78
153 92 213 27z"/>
<path d="M4321 1239 c-26 -24 -27 -41 -3 -62 25 -23 39 -21 57 7 30 45 -15 91
-54 55z"/>
<path d="M1850 1333 c0 -22 2 -25 10 -13 13 20 13 40 0 40 -5 0 -10 -12 -10
-27z"/>
<path d="M1910 1296 c0 -8 5 -18 10 -21 6 -3 10 1 10 9 0 8 -4 18 -10 21 -5 3
-10 -1 -10 -9z"/>
<path d="M3320 1265 c-7 -9 -10 -18 -7 -21 10 -11 37 5 37 21 0 19 -14 19 -30
0z"/>
<path d="M1225 1250 c-3 -5 -1 -10 4 -10 6 0 11 5 11 10 0 6 -2 10 -4 10 -3 0
-8 -4 -11 -10z"/>
<path d="M1499 1208 c-15 -38 -5 -106 19 -131 13 -12 39 -22 70 -25 44 -4 53
-1 81 24 36 33 49 83 32 127 -11 27 -11 27 -31 7 -11 -11 -17 -26 -14 -35 8
-19 -32 -65 -56 -65 -23 0 -60 42 -60 68 0 11 -5 24 -10 27 -8 5 -8 11 -1 19
8 9 7 13 -4 13 -8 0 -19 -13 -26 -29z"/>
<path d="M2996 1197 c-19 -14 -19 -15 4 -73 28 -72 45 -93 62 -76 13 13 3 54
-30 125 -16 35 -19 37 -36 24z"/>
<path d="M3130 1155 c0 -9 5 -15 11 -13 6 2 11 8 11 13 0 5 -5 11 -11 13 -6 2
-11 -4 -11 -13z"/>
<path d="M3860 1136 c0 -4 7 -14 15 -22 8 -9 15 -11 15 -6 0 5 -7 15 -15 22
-8 7 -15 9 -15 6z"/>
<path d="M1960 1046 c0 -9 7 -16 16 -16 10 0 14 -6 10 -15 -6 -18 10 -20 20
-3 4 6 2 14 -4 16 -7 2 -19 10 -27 19 -13 13 -15 13 -15 -1z"/>
<path d="M2035 1035 c0 -14 3 -25 8 -25 4 0 7 11 7 25 0 14 -3 25 -7 25 -5 0
-8 -11 -8 -25z"/>
<path d="M1913 1033 c12 -3 16 -10 12 -21 -5 -13 -3 -14 6 -5 14 14 3 33 -19
32 -15 -1 -14 -2 1 -6z"/>
<path d="M2964 885 c-9 -23 4 -47 23 -43 22 4 30 38 11 49 -19 13 -28 11 -34
-6z"/>
</g>
</svg>
